<svg xmlns="http://www.w3.org/2000/svg" viewBox="0 0 100 100">
  <path fill="#003366" d="M50 25.5c-11.8 0-21.7 8.3-24.1 19.3-.3 1.4-.4 2.8-.4 4.3 0 1.5.1 3 .4 4.4.4 1.8 1 3.5 1.8 5.1l1.4-.7c-.7-1.4-1.2-3-1.6-4.6-.2-1.3-.3-2.7-.3-4.1 0-1.4.1-2.7.4-4 2.2-10 11.2-17.6 22-17.6 10.7 0 19.8 7.4 22 17.3.3 1.3.4 2.7.4 4.1s-.1 2.8-.4 4.1c-1.1 4.9-3.7 9.1-7.2 12.3l1.1 1c3.8-3.5 6.6-8.1 7.8-13.4.3-1.4.5-2.9.5-4.4s-.2-3-.5-4.4c-2.4-11.1-12.3-19.4-24.3-19.4z"/>
  
  <polygon fill="#005599" points="50 32.5 53.8 40.2 62.3 41.5 56.1 47.5 57.6 56 50 52 42.4 56 43.9 47.5 37.7 41.5 46.2 40.2"/>
  
  <path fill="#002244" d="M38 52h18v9H38z"/>
  <path fill="#003366" d="M56 53.5l6.5 0 2.5 3.5 0 4-13 0z"/>
  
  <circle fill="#003366" cx="41.5" cy="62.5" r="2.2"/>
  <circle fill="#003366" cx="46.5" cy="62.5" r="2.2"/>
  <circle fill="#003366" cx="61.5" cy="62.5" r="2.2"/>
</svg>